<?xml version="1.0" encoding="utf-8"?>
<!-- Generator: Adobe Illustrator 27.6.1, SVG Export Plug-In . SVG Version: 6.00 Build 0)  -->
<svg version="1.1" id="Layer_1" xmlns="http://www.w3.org/2000/svg" xmlns:xlink="http://www.w3.org/1999/xlink" x="0px" y="0px"
	 viewBox="0 0 494.833 84.473" enable-background="new 0 0 494.833 84.473" xml:space="preserve">
<g>
	<path d="M23.396,53.939l21.56-51.047h18.949L29.874,73.275H11.795L0,2.892h17.886L23.396,53.939z"/>
	<path d="M75.12,73.275H58.588l12.23-70.383h16.484L75.12,73.275z"/>
	<path d="M155.772,1.879c-0.705,4.101-1.41,8.202-2.115,12.303c-2.702-0.351-12.062-0.653-14.788-0.718
		c-2.364-0.056-6.72-0.252-14.132,0.098c-4.099,0.194-6.488,0.293-9.614,1.99c-2.136,1.16-3.764,4.529-3.764,6.853
		c0,2.521,2.455,4.812,7.366,6.874c1.97,0.819,3.521,1.506,4.652,2.062c5.718,2.816,9.611,5.565,11.679,8.249
		c2.067,2.685,3.101,6.106,3.101,10.262c0,7.628-2.876,13.708-8.626,18.242c-5.751,4.534-11.071,6.104-20.924,6.104
		c-6.362,0-10.818-0.17-14.812-0.369c-4.436-0.221-10.826-0.474-18.676-0.555c0.759-4.558,1.518-9.115,2.276-13.673
		c3.97,0.366,9.694,0.351,12.587,0.558c3.068,0.219,11.734,0.295,14.318,0.239c4.885-0.105,7.444-0.185,10.158-1.757
		s4.071-3.699,4.071-6.383c0-3.371-3.603-6.514-10.807-9.428c-1.81-0.72-3.215-1.293-4.216-1.719
		c-3.91-1.669-6.817-3.862-8.723-6.58c-1.907-2.716-2.859-5.99-2.859-9.82c0-6.743,2.665-12.218,7.996-16.424
		c5.331-4.206,12.429-6.228,21.074-6.729c4.849-0.281,11.866-0.186,15.794-0.14c3.683,0.042,8.499,0.168,10.515,0.219
		C150.786,1.726,153.695,1.813,155.772,1.879z"/>
	<path d="M159.889,73.275l-16.347-1.013l12.23-70.383l16.298,1.013L159.889,73.275z"/>
	<path d="M199.567,74.242c-7.695-0.162-13.864-2.578-18.507-7.251c-4.644-4.672-7.271-10.925-7.881-18.756
		c-0.339-3.867-0.017-8.418,0.966-13.656c0.982-5.236,2.728-10.062,5.237-14.478c2.508-4.415,5.644-8.088,9.406-11.021
		c6.305-4.931,13.558-7.315,21.761-7.154c5.05,0.097,9.465,1.201,13.244,3.312c3.779,2.111,6.804,5.148,9.076,9.112
		c2.27,3.964,3.592,8.476,3.966,13.535c0.271,3.577,0.042,7.646-0.686,12.206c-0.73,4.561-2.068,8.912-4.017,13.052
		c-1.95,4.142-4.466,7.792-7.55,10.949c-3.085,3.159-6.72,5.664-10.906,7.517C209.489,73.46,204.786,74.338,199.567,74.242z
		 M219.396,27.739c-0.339-8.056-3.627-12.246-9.864-12.568c-4.814-0.225-8.796,1.588-11.948,5.438
		c-3.152,3.851-5.237,9.531-6.254,17.04c-0.645,4.641-0.882,8.234-0.712,10.78c0.338,8.186,3.661,12.392,9.965,12.617
		c4.135,0.193,7.694-1.216,10.677-4.23c2.982-3.013,5.135-7.396,6.457-13.148C219.04,37.915,219.599,32.605,219.396,27.739z"/>
	<path d="M293.104,73.275h-16l-16.822-44.424l-7.734,44.424h-16.532l12.182-70.383h16.146l16.774,44.424l7.686-44.424h16.532
		L293.104,73.275z"/>
</g>
<path d="M188.228,84.473"/>
<g>
	<path d="M368.272,27.831v0.291c5.432,1.481,8.21,4.799,10.608,8.631c1.921,3.071,2.239,10.886,1.927,14.604
		c-0.214,2.547-2.441,12.875-9.834,18.884c-5.216,4.24-13.463,6.597-21.386,6.321c-5.192-0.181-11.859-1.685-16.665-6.791
		c-6.198-6.584-4.129-17.006-3.784-18.056c4.534,0.11,9.068,0.22,13.602,0.331c-0.322,3.287,0.508,6.06,2.489,8.314
		c1.982,2.257,4.584,3.385,7.808,3.385c3.222,0,6.253-0.964,8.556-3.433c2.428-2.603,4.021-5.732,4.577-8.857
		c0.551-3.098,0.134-6.544-0.146-7.269c-1.015-2.632-2.26-4.945-5.263-6.804c-3.494-2.163-6.974-2.403-10.109-1.846l0.379-5.804
		l15.551-16.452l2.433-2.723h-23.735l0.767-9.615c13.696,0,30.684,0,44.38,0c-0.188,1.943-0.47,4.64-0.658,6.582"/>
</g>
<g>
	<path stroke="#000000" stroke-width="5" stroke-miterlimit="10" d="M407.601,30.528h0.392c2.352-1.044,4.998-1.568,7.938-1.568
		c2.482,0,4.933,0.426,7.351,1.274c2.416,0.85,4.54,2.173,6.37,3.969c1.828,1.798,3.185,4.084,4.066,6.86
		c0.883,2.778,1.062,6.061,0.539,9.849c-0.523,3.855-1.617,7.237-3.282,10.143c-1.666,2.908-3.725,5.341-6.175,7.301
		c-2.449,1.96-5.179,3.43-8.183,4.41c-3.006,0.98-6.142,1.47-9.408,1.47c-3.268,0-6.271-0.523-9.016-1.568s-5.064-2.548-6.958-4.508
		c-1.896-1.96-3.283-4.312-4.165-7.056s-1.062-5.814-0.539-9.212c0.26-2.156,0.686-4.116,1.273-5.88
		c0.589-1.764,1.307-3.445,2.156-5.047c0.849-1.6,1.796-3.168,2.842-4.704c1.045-1.535,2.221-3.151,3.528-4.851l21.462-27.734
		h11.074L407.601,30.528z M395.938,51.598c-0.328,2.092-0.262,4.018,0.197,5.782c0.458,1.764,1.243,3.283,2.358,4.557
		c1.114,1.274,2.506,2.271,4.179,2.989c1.672,0.719,3.589,1.078,5.754,1.078c2.162,0,4.179-0.358,6.047-1.078
		c1.868-0.718,3.523-1.715,4.966-2.989s2.622-2.793,3.541-4.557c0.917-1.764,1.54-3.69,1.868-5.782
		c0.26-2.09,0.179-4.018-0.247-5.782c-0.426-1.764-1.181-3.283-2.262-4.557c-1.081-1.274-2.458-2.27-4.13-2.989
		c-1.672-0.718-3.589-1.078-5.751-1.078c-2.165,0-4.181,0.36-6.049,1.078c-1.868,0.72-3.54,1.715-5.015,2.989
		c-1.477,1.274-2.688,2.793-3.639,4.557C396.807,47.58,396.2,49.508,395.938,51.598z"/>
	<path stroke="#000000" stroke-width="5" stroke-miterlimit="10" d="M443.763,38.368c0.522-3.789,1.404-7.791,2.646-12.005
		c1.24-4.214,2.988-8.085,5.243-11.613c2.254-3.528,5.111-6.451,8.574-8.771c3.463-2.318,7.645-3.479,12.544-3.479
		c3.267,0,6.06,0.539,8.38,1.617c2.317,1.078,4.229,2.516,5.732,4.312c1.502,1.797,2.661,3.905,3.479,6.321
		c0.815,2.418,1.372,4.949,1.666,7.595s0.375,5.341,0.244,8.085c-0.131,2.744-0.359,5.39-0.686,7.938
		c-0.523,3.66-1.405,7.58-2.646,11.76c-1.241,4.182-2.988,8.07-5.242,11.662c-2.254,3.594-5.097,6.566-8.526,8.918
		s-7.595,3.528-12.495,3.528c-4.899,0-8.738-1.176-11.515-3.528c-2.778-2.352-4.802-5.324-6.076-8.918
		c-1.274-3.592-1.944-7.48-2.009-11.662C443.011,45.948,443.239,42.028,443.763,38.368z M453.171,38.368
		c-0.328,2.288-0.572,4.998-0.735,8.134c-0.163,3.136,0.05,6.159,0.638,9.065c0.588,2.908,1.715,5.375,3.381,7.399
		c1.666,2.026,4.131,3.038,7.398,3.038c3.267,0,6.011-1.012,8.232-3.038c2.221-2.024,4.018-4.491,5.39-7.399
		c1.372-2.906,2.417-5.929,3.137-9.065c0.718-3.136,1.24-5.846,1.567-8.134c0.196-1.568,0.393-3.348,0.588-5.341
		c0.196-1.992,0.261-4.018,0.196-6.076c-0.065-2.058-0.278-4.05-0.637-5.978c-0.36-1.926-0.98-3.658-1.862-5.194
		c-0.882-1.535-2.043-2.76-3.479-3.675c-1.438-0.914-3.234-1.372-5.391-1.372c-3.268,0-6.012,0.997-8.231,2.989
		c-2.223,1.994-4.019,4.41-5.391,7.252c-1.372,2.842-2.435,5.848-3.185,9.016C454.036,33.159,453.497,35.952,453.171,38.368z"/>
</g>
</svg>
